<svg id="SvgjsSvg1001" width="256" height="256" xmlns="http://www.w3.org/2000/svg" version="1.1" xmlns:xlink="http://www.w3.org/1999/xlink" xmlns:svgjs="http://svgjs.com/svgjs">
	<defs id="SvgjsDefs1002">
	</defs>
	<g id="SvgjsG1008">
		<svg xmlns="http://www.w3.org/2000/svg" viewBox="0 0 5000 5000" width="256" height="256">
			<path fill="#ffffff" d="m4197.334 487.936 474.689 75.473c100.137 15.921 173.844 102.273 173.844 203.668v3181.19c0 113.896-92.331 206.226-206.226 206.226H1701.542c-113.895 0-206.226-92.33-206.226-206.226V767.076c0-101.395 73.707-187.747 173.844-203.668l474.69-75.473h2053.484z" class="colorfff svgShape">
			</path>
			<path fill="#034c60" d="M4639.641 4196.338H1701.542c-66.262 0-128.559-25.804-175.414-72.658-46.854-46.854-72.658-109.15-72.658-175.413V767.076c0-58.99 21.091-116.186 59.388-161.053 38.297-44.868 91.473-74.679 149.73-83.941l474.689-75.473c2.173-.346 4.37-.52 6.571-.52h2053.485c2.2 0 4.397.174 6.57.52l474.688 75.473c58.259 9.263 111.434 39.073 149.731 83.94 38.298 44.868 59.389 102.064 59.389 161.054v3181.19c0 66.263-25.804 128.559-72.659 175.413-46.853 46.855-109.149 72.659-175.411 72.659zM2147.152 529.782l-471.422 74.953c-80.292 12.766-138.568 81.041-138.568 162.341v3181.19c0 90.64 73.741 164.38 164.38 164.38h2938.099c90.64 0 164.381-73.74 164.381-164.38V767.076c0-81.301-58.277-149.575-138.569-162.341l-471.422-74.953H2147.152z" class="color034c60 svgShape">
			</path>
			<path fill="#ffffff" d="m3170.591 1230.934-639.155-1102.2-387.588 359.201 321.123 958.351c27.571 82.283 123.54 118.757 198.802 75.557l506.818-290.909z" class="colorfff svgShape">
			</path>
			<path fill="#034c60" d="M2595.435 1582c-21.51 0-43.108-3.895-63.812-11.763-50.432-19.167-89.188-59.5-106.329-110.655L2104.171 501.23a41.845 41.845 0 0 1 11.233-43.987l387.587-359.2a41.848 41.848 0 0 1 64.644 9.7l639.155 1102.2a41.846 41.846 0 0 1-15.369 57.284l-506.818 290.909c-27.581 15.831-58.282 23.864-89.168 23.864zM2192.112 500.261l312.538 932.73c9.142 27.282 29.811 48.792 56.706 59.014 26.895 10.22 56.633 7.87 81.586-6.454l470.365-269.985-591.815-1020.562-329.38 305.257z" class="color034c60 svgShape">
			</path>
			<path fill="#ffffff" d="m3170.591 1230.934 639.154-1102.2 387.588 359.201-321.123 958.351c-27.571 82.283-123.54 118.757-198.802 75.557l-506.817-290.909z" class="colorfff svgShape">
			</path>
			<path fill="#034c60" d="M3745.748 1582c-30.891 0-61.585-8.031-89.171-23.864l-506.816-290.909a41.846 41.846 0 0 1-15.369-57.284l639.154-1102.199a41.848 41.848 0 0 1 64.644-9.7l387.588 359.2a41.846 41.846 0 0 1 11.233 43.987l-321.123 958.351c-17.142 51.156-55.896 91.489-106.328 110.656-20.701 7.866-42.305 11.762-63.812 11.762zm-517.872-366.435 470.364 269.985c24.955 14.324 54.692 16.676 81.587 6.454 26.896-10.222 47.564-31.732 56.706-59.014l312.538-932.73-329.381-305.256-591.814 1020.561z" class="color034c60 svgShape">
			</path>
			<path fill="#ff8c64" d="m2842.106 1419.482 165.034 292.096h326.902l165.035-292.096-328.486-188.548z" class="colorff8c64 svgShape">
			</path>
			<path fill="#034c60" d="M3334.043 1753.423h-326.902a41.846 41.846 0 0 1-36.433-21.261l-165.035-292.096c-11.314-20.024-4.347-45.427 15.602-56.877l328.486-188.547a41.843 41.843 0 0 1 41.662 0l328.485 188.547c19.948 11.45 26.916 36.852 15.602 56.877l-165.034 292.096a41.844 41.844 0 0 1-36.433 21.261zm-302.482-83.692h278.062l132.576-234.647-271.607-155.9-271.608 155.9 132.577 234.647z" class="color034c60 svgShape">
			</path>
			<path fill="#4ed8ce" d="m3809.746 128.735-639.155 1102.199-639.154-1102.199z" class="color4ed8ce svgShape">
			</path>
			<path fill="#034c60" d="M3170.592 1272.78a41.847 41.847 0 0 1-36.2-20.854L2495.237 149.727a41.846 41.846 0 0 1 36.199-62.838h1278.31a41.847 41.847 0 0 1 36.199 62.838l-639.153 1102.199a41.847 41.847 0 0 1-36.2 20.854zM2604.075 170.581l566.517 976.937 566.516-976.937H2604.075z" class="color034c60 svgShape">
			</path>
			<path fill="#ff8c64" d="m3334.042 1711.578 339.925 1659.852a155.134 155.134 0 0 1-37.277 138.536l-351.907 382.682c-61.46 66.834-166.926 66.834-228.386 0l-351.906-382.682a155.137 155.137 0 0 1-37.277-138.536l339.925-1659.852h326.903z" class="colorff8c64 svgShape">
			</path>
			<path fill="#034c60" d="M3170.592 3984.619c-26.925 0-53.069-5.355-77.708-15.916-25.623-10.982-48.262-27.042-67.287-47.73L2673.69 3538.29c-43.461-47.261-61.168-112.875-47.404-175.575l339.86-1659.533c3.987-19.471 21.12-33.451 40.995-33.451h326.902c19.875 0 37.008 13.98 40.995 33.451l339.865 1659.558c13.754 62.693-3.955 128.295-47.411 175.55l-351.906 382.683c-19.025 20.688-41.664 36.748-67.287 47.73-24.639 10.561-50.783 15.916-77.707 15.916zm-129.307-2231.196L2708.21 3379.824c-.044.216-.091.432-.138.647-7.995 36.119 2.182 73.938 27.221 101.168l351.907 382.683c21.707 23.605 51.323 36.604 83.392 36.604s61.684-12.999 83.391-36.604l351.906-382.683c25.04-27.229 35.216-65.049 27.222-101.168a39.392 39.392 0 0 1-.138-.647l-333.074-1626.401h-258.614z" class="color034c60 svgShape">
			</path>
			<path fill="#4ed8ce" d="M2835.379 4606.528h1215.756c50.251 0 90.988 40.737 90.988 90.988v82.761c0 50.251-40.737 90.988-90.988 90.988H2599.833a344.312 344.312 0 0 1-167.979-43.756l-560.63-313.339c-30.325-16.949-67.69 4.973-67.69 39.712v226.395c0 50.251-40.737 90.988-90.988 90.988H366.397c-43.6 0-81.058-30.794-89.315-73.605-35.323-183.165-122.95-662.427-122.95-909.357 0-479.055 240.911-773.394 363.606-892.236 35.275-34.167 90.873-34.37 126.123-.177 62.396 60.525 169.2 144.665 280.766 144.665 152.431 0 415.993-157.065 642.899-196.371 53.315-9.236 107.974 5.526 149.219 40.548 202.072 171.587 713.858 525.027 969.109 699.087 98.115 66.907 207.469 115.304 322.946 143.018l598.404 143.617c228.57 54.857 389.724 259.265 389.724 494.325v141.75" class="color4ed8ce svgShape">
			</path>
			<path fill="#034c60" d="M4051.136 4913.111H2599.834c-65.806 0-130.952-16.97-188.395-49.074l-560.63-313.339c-.592-.331-1.824-1.021-3.626.038-1.802 1.057-1.802 2.468-1.802 3.146v226.396c0 73.245-59.589 132.834-132.834 132.834H366.398c-63.546 0-118.389-45.222-130.404-107.528-37.195-192.871-123.707-668.347-123.707-917.28 0-215.457 47.222-417.392 140.353-600.193 77.747-152.606 171.243-259.391 235.986-322.1 24.899-24.117 57.607-37.439 92.097-37.512h.281c34.494 0 67.152 13.259 91.994 37.355 51.151 49.617 151.858 132.855 251.631 132.855 71.926 0 179.978-42.188 294.375-86.853 112.643-43.98 229.122-89.458 341.382-108.905 65.819-11.399 132.685 6.779 183.446 49.883 197.479 167.687 689.743 508.301 965.601 696.412 94.155 64.207 198.163 110.267 309.136 136.9l598.404 143.617c60.745 14.578 118.034 39.098 170.276 72.875 50.903 32.912 95.784 73.788 133.395 121.493s66.885 100.886 87.008 158.064c20.653 58.683 31.125 120.112 31.125 182.582v99.903h12.36c73.245 0 132.834 59.59 132.834 132.835v82.761c-.001 73.246-59.59 132.835-132.835 132.835zm-2202.125-446.693c14.61 0 29.232 3.736 42.629 11.224l560.631 313.339c44.993 25.147 96.021 38.439 147.563 38.439h1451.302c27.098 0 49.143-22.046 49.143-49.143v-82.761c0-27.098-22.045-49.143-49.143-49.143H2835.38c-23.111 0-41.846-18.734-41.846-41.846s18.734-41.847 41.846-41.847h1119.704v-99.903c0-216.555-147.068-403.097-357.644-453.634l-598.404-143.617c-120.881-29.013-234.183-79.188-336.757-149.137-277.22-189.041-772.209-531.586-972.619-701.762-31.786-26.989-73.7-38.368-114.991-31.213-103.957 18.007-216.444 61.927-325.229 104.4-121.945 47.612-237.128 92.584-324.813 92.584-122.813 0-236.313-85.091-309.902-156.475-18.958-18.391-48.772-18.303-67.874.199-131.041 126.924-350.874 407.71-350.874 862.178 0 241.717 85.452 710.922 122.192 901.433 4.435 22.994 24.716 39.685 48.227 39.685h1346.149c27.097 0 49.142-22.046 49.142-49.143v-226.396c0-31.321 16.128-59.482 43.143-75.331 13.78-8.08 28.974-12.13 44.181-12.13z" class="color034c60 svgShape">
			</path>
			<path fill="#034c60" d="M1435.711 4392.118H199.861c-23.111 0-41.846-18.735-41.846-41.846s18.735-41.846 41.846-41.846h1235.85c23.111 0 41.846 18.735 41.846 41.846s-18.735 41.846-41.846 41.846zm993.101-380.151c-13.54 0-27.104-.54-40.687-1.628-97.182-7.778-189.535-43.126-267.076-102.222L1096.131 3127c-18.381-14.009-21.925-40.267-7.917-58.647 14.01-18.381 40.267-21.924 58.647-7.917l1024.917 781.117c131.603 100.299 310.9 114.651 456.785 36.562l236.734-126.722c20.374-10.908 45.733-3.232 56.641 17.145 10.907 20.375 3.231 45.734-17.145 56.641l-236.734 126.722c-73.939 39.578-155.916 60.066-239.247 60.066z" class="color034c60 svgShape">
			</path>
			<path fill="#034c60" d="M942.006 4392.126c-19.614 0-37.121-13.855-41.024-33.828-53.415-273.358-187.517-495.856-398.582-661.314-157.082-123.139-298.322-165.911-299.73-166.328-22.157-6.571-34.792-29.859-28.222-52.017 6.571-22.156 29.858-34.793 52.017-28.222 6.375 1.891 158.069 47.827 327.569 180.701 99.448 77.959 184.537 169.927 252.902 273.347 85.384 129.164 144.66 276.456 176.184 437.782 4.432 22.683-10.362 44.662-33.044 49.095a42.076 42.076 0 0 1-8.07.784z" class="color034c60 svgShape">
			</path>
			<circle cx="1072.616" cy="1796.26" r="855.049" fill="#ffffff" class="colorfff svgShape">
			</circle>
			<path fill="#034c60" d="M1072.616 2693.154c-121.062 0-238.524-23.719-349.125-70.499-106.807-45.176-202.72-109.839-285.076-192.195-82.356-82.355-147.02-178.269-192.195-285.075-46.78-110.601-70.5-228.063-70.5-349.125s23.719-238.524 70.5-349.125c45.175-106.807 109.839-202.72 192.195-285.076 82.355-82.355 178.269-147.019 285.076-192.194 110.601-46.78 228.063-70.5 349.125-70.5s238.524 23.72 349.125 70.5c106.807 45.175 202.72 109.839 285.076 192.194 82.356 82.356 147.02 178.269 192.195 285.076 46.78 110.601 70.5 228.063 70.5 349.125s-23.719 238.524-70.5 349.125c-45.175 106.806-109.839 202.72-192.195 285.075-82.355 82.356-178.269 147.019-285.076 192.195-110.601 46.781-228.064 70.499-349.125 70.499zm0-1710.097c-448.401 0-813.203 364.801-813.203 813.203 0 448.401 364.801 813.203 813.203 813.203s813.203-364.801 813.203-813.203c-.001-448.402-364.802-813.203-813.203-813.203z" class="color034c60 svgShape">
			</path>
			<path fill="#ffd150" d="M2004.807 1145.464v-.002c-78.811-78.809-206.588-78.809-285.399 0l-648.806 648.808-233.767-233.765c-78.809-78.811-206.586-78.811-285.397 0-78.811 78.809-78.811 206.586 0 285.397l359.337 359.337c43.782 43.782 102.612 62.33 159.827 57.465 57.215 4.865 116.043-13.683 159.827-57.465l774.378-774.378c78.808-78.812 78.808-206.589 0-285.397z" class="colorffd150 svgShape">
			</path>
			<path fill="#034c60" d="M1052.858 2305.304c-64.65 0-126.276-25.08-171.673-70.477l-359.337-359.336c-46.02-46.02-71.364-107.207-71.364-172.289 0-65.083 25.344-126.269 71.365-172.288 46.02-46.02 107.207-71.364 172.288-71.364 65.083 0 126.269 25.345 172.288 71.365l204.177 204.175 619.217-619.219c46.021-46.019 107.207-71.363 172.289-71.363s126.269 25.344 172.289 71.362v.002c46.019 46.019 71.362 107.206 71.362 172.287s-25.343 126.268-71.362 172.288l-774.379 774.378c-49.537 49.534-118.401 74.877-189.417 69.848-5.932.423-11.851.631-17.743.631zm-358.722-762.061c-42.727 0-82.896 16.639-113.11 46.852-30.213 30.212-46.851 70.381-46.851 113.108 0 42.727 16.639 82.896 46.851 113.109l359.337 359.337c32.876 32.876 79.053 49.407 126.692 45.359a41.757 41.757 0 0 1 7.09 0c47.633 4.048 93.815-12.483 126.693-45.36l774.377-774.377c62.367-62.369 62.368-163.85 0-226.218-62.368-62.368-163.851-62.369-226.22-.001l-648.806 648.808c-16.342 16.342-42.837 16.341-59.179 0l-233.767-233.766c-30.211-30.213-70.38-46.851-113.107-46.851z" class="color034c60 svgShape">
			</path>
		</svg>
	</g>
</svg>
