<svg xmlns="http://www.w3.org/2000/svg" xmlns:xlink="http://www.w3.org/1999/xlink" preserveAspectRatio="xMidYMid meet" version="1.0" viewBox="402.9 520.2 1656.8 1400.8" zoomAndPan="magnify" style="fill: rgb(0, 0, 0);" original_string_length="15796">
	<g>
		<g id="__id61_she7oqbzq9">
			<path d="M 1483.679688 1397.511719 C 1476.90625 1390.792969 1471.371094 1382.949219 1467.351562 1374.292969 L 1455.007812 1347.792969 C 1441.449219 1355.152344 1426.613281 1358.742188 1412.070312 1362.78125 L 1409.882812 1362.742188 L 1399.914062 1363.921875 L 1383.675781 1362.5625 C 1381.878906 1361.84375 1382.804688 1362.019531 1380.90625 1361.972656 C 1362.800781 1354.03125 1371.542969 1357.671875 1354.738281 1350.953125 C 1355.039062 1350.472656 1352.792969 1349.660156 1352.792969 1349.640625 C 1340.167969 1336.660156 1346.851562 1343.332031 1332.648438 1329.601562 C 1331.890625 1327.882812 1332.410156 1328.660156 1331.070312 1327.273438 C 1316.929688 1303.210938 1318.144531 1283.621094 1317.664062 1255.683594 L 1288.460938 1254.320312 C 1244.117188 1252.242188 1209.847656 1214.613281 1211.929688 1170.257812 C 1212.367188 1160.742188 1214.507812 1151.378906 1218.226562 1142.597656 L 1229.667969 1115.679688 L 1203.546875 1102.5625 C 1163.867188 1082.636719 1147.878906 1034.316406 1167.808594 994.648438 C 1172.109375 986.132812 1177.847656 978.4375 1184.828125 971.917969 L 1206.226562 951.988281 L 1187.6875 929.382812 C 1159.570312 895.027344 1164.617188 844.390625 1198.949219 816.261719 C 1206.316406 810.222656 1214.71875 805.523438 1223.726562 802.425781 L 1251.398438 792.910156 L 1243.667969 764.71875 C 1231.929688 721.90625 1257.128906 677.679688 1299.933594 665.96875 C 1309.144531 663.441406 1318.722656 662.582031 1328.226562 663.402344 L 1357.339844 665.980469 L 1361.761719 637.082031 C 1368.472656 593.183594 1409.464844 563.042969 1453.351562 569.742188 C 1462.765625 571.183594 1471.875 574.289062 1480.214844 578.914062 L 1505.78125 593.09375 L 1521.5625 568.492188 C 1545.535156 531.125 1595.257812 520.246094 1632.621094 544.214844 C 1640.632812 549.371094 1647.683594 555.917969 1653.421875 563.539062 L 1671.011719 586.890625 L 1695.449219 570.816406 C 1732.539062 546.453125 1782.363281 556.75 1806.761719 593.839844 C 1812.007812 601.8125 1815.773438 610.65625 1817.945312 619.945312 L 1824.492188 648.429688 L 1853.351562 643.691406 C 1897.164062 636.5 1938.507812 666.183594 1945.675781 710.003906 C 1947.230469 719.417969 1947.089844 729.011719 1945.269531 738.375 L 1939.671875 767.082031 L 1967.964844 774.488281 C 2010.902344 785.746094 2036.605469 829.65625 2025.359375 872.609375 C 2022.933594 881.832031 2018.902344 890.566406 2013.429688 898.363281 L 1996.648438 922.308594 L 2019.457031 940.59375 C 2054.105469 968.328125 2059.71875 1018.910156 2031.980469 1053.574219 C 2026.027344 1061.015625 2018.773438 1067.335938 2010.597656 1072.238281 L 1985.542969 1087.3125 L 1998.960938 1113.292969 C 2019.332031 1152.71875 2003.902344 1201.203125 1964.4375 1221.589844 C 1955.960938 1225.953125 1946.773438 1228.792969 1937.320312 1229.960938 L 1908.285156 1233.5 L 1910.003906 1262.691406 C 1912.542969 1307.011719 1878.714844 1345.03125 1834.410156 1347.601562 C 1824.871094 1348.140625 1815.34375 1347.011719 1806.207031 1344.210938 L 1778.242188 1335.640625 L 1767.917969 1363.011719 C 1752.261719 1404.542969 1705.875 1425.5 1664.351562 1409.820312 C 1655.417969 1406.453125 1647.179688 1401.53125 1639.964844 1395.28125 L 1617.914062 1376.070312 L 1597.367188 1396.871094 C 1566.144531 1428.421875 1515.242188 1428.730469 1483.679688 1397.511719 Z M 1662.796875 926.425781 L 1667.007812 928.183594 L 1664.25 926.917969 Z M 1583.328125 1107.707031 C 1646.863281 1116.023438 1704.03125 1084.113281 1729.0625 1024.535156 C 1736.113281 1007.742188 1735.621094 1003.078125 1738.453125 984.71875 C 1730.84375 979.75 1722.65625 975.554688 1715.566406 969.808594 C 1708.542969 964.121094 1704.382812 954.71875 1697.6875 948.527344 C 1677.417969 929.773438 1653.660156 920.90625 1626.570312 920.3125 C 1587.523438 923.835938 1566.953125 937.371094 1545.292969 969.515625 C 1542.171875 974.179688 1535.726562 988.886719 1534.894531 994.511719 C 1533.351562 1004.949219 1532.503906 1015.5 1532.644531 1026.039062 C 1532.695312 1031.332031 1534.515625 1036.449219 1535.460938 1041.65625 C 1537.789062 1050.3125 1542.070312 1058.539062 1543.714844 1067.382812 C 1544.246094 1070.164062 1543.511719 1073.070312 1543.765625 1075.890625 C 1544.042969 1078.707031 1545.304688 1081.386719 1545.332031 1084.214844 C 1545.34375 1087.714844 1543.851562 1091.117188 1543.878906 1094.640625 C 1549.511719 1097.6875 1545.433594 1095.578125 1556.425781 1100.300781 L 1557.222656 1100.730469 C 1574.484375 1106.265625 1565.777344 1103.964844 1583.328125 1107.707031" style="fill: rgb(243, 246, 248);" />
		</g>
		<g id="__id62_she7oqbzq9">
			<path d="M 1398.519531 1283.535156 L 1396.730469 1178.910156 L 1292.21875 1174.019531 L 1333.136719 1077.707031 L 1239.628906 1030.710938 L 1316.1875 959.371094 L 1249.882812 878.429688 L 1348.828125 844.382812 L 1321.175781 743.46875 L 1425.425781 752.625 L 1441.214844 649.1875 L 1532.730469 699.953125 L 1589.222656 611.878906 L 1652.152344 695.457031 L 1739.609375 637.976562 L 1763.105469 739.941406 L 1866.375 723.003906 L 1846.359375 825.71875 L 1947.585938 852.238281 L 1887.554688 937.917969 L 1969.234375 1003.3125 L 1879.519531 1057.183594 L 1927.53125 1150.148438 L 1823.679688 1162.878906 L 1829.734375 1267.347656 L 1729.675781 1236.707031 L 1692.722656 1334.617188 L 1613.78125 1265.925781 L 1540.195312 1340.328125 L 1496.015625 1245.488281 Z M 1464.941406 1083.433594 L 1463.058594 1079.011719 C 1461.328125 1073.613281 1459.347656 1068.308594 1457.886719 1062.824219 C 1448.066406 1025.953125 1450.636719 986.761719 1464.675781 951.328125 C 1501.078125 860.523438 1604.226562 816.425781 1695.027344 852.828125 C 1724.894531 865.695312 1751.195312 884.554688 1770.730469 910.84375 L 1771.695312 912.242188 C 1751.871094 865.875 1720.289062 833.472656 1673.464844 813.988281 C 1582.660156 777.574219 1479.535156 821.683594 1443.113281 912.484375 C 1420.6875 972.722656 1428.09375 1030.796875 1464.941406 1083.433594 Z M 1524.625 1174.117188 C 1414.648438 1129.996094 1361.226562 1005.085938 1405.320312 895.101562 C 1449.429688 785.101562 1574.347656 731.691406 1684.347656 775.785156 C 1794.335938 819.894531 1847.746094 944.816406 1803.652344 1054.800781 C 1759.542969 1164.800781 1634.609375 1218.210938 1524.625 1174.117188 Z M 1515.078125 1197.902344 C 1638.222656 1247.277344 1778.0625 1187.5 1827.425781 1064.359375 C 1876.800781 941.226562 1817.011719 801.375 1693.867188 752 C 1570.75 702.636719 1430.910156 762.425781 1381.535156 885.542969 C 1332.144531 1008.6875 1391.949219 1148.515625 1515.078125 1197.902344" style="fill: rgb(163, 167, 228);" />
		</g>
		<g id="__id63_she7oqbzq9">
			<path d="M 1041.101562 1742.417969 C 1032.484375 1742.328125 1023.863281 1742.199219 1015.230469 1741.558594 L 715.027344 1741.148438 C 542.648438 1741.148438 402.890625 1601.410156 402.890625 1429.027344 L 402.921875 1426.9375 C 406.980469 1296.886719 485.457031 1182.808594 607.699219 1136.390625 C 676.195312 911.074219 907.714844 786.59375 1135.324219 835.703125 C 1246.070312 859.597656 1342.042969 927.597656 1410.246094 1016.910156 C 1421.304688 1014.492188 1432.71875 1013.402344 1444.039062 1013.402344 C 1568.320312 1015.75 1681.386719 1100.261719 1706.667969 1224.234375 C 1722.882812 1228.738281 1739.679688 1231.488281 1755.289062 1237.757812 C 1820.777344 1264.15625 1892.179688 1317.277344 1914.027344 1388.035156 L 1931.570312 1470.507812 C 1932.054688 1478.90625 1932.007812 1475.597656 1932.007812 1480.46875 C 1932.007812 1626.386719 1807.894531 1742.40625 1657.300781 1742.40625 L 1067.28125 1741.628906 L 1065.261719 1741.816406 Z M 1022.003906 1580.808594 C 1034.441406 1582.007812 1047.121094 1582.066406 1059.574219 1580.855469 L 1063.53125 1580.855469 L 1657.394531 1581.65625 C 1736.371094 1578.667969 1793.078125 1513.566406 1761.289062 1438.847656 C 1754.058594 1423.976562 1736.394531 1407.546875 1713.09375 1395.226562 L 1704.949219 1391.4375 C 1689.183594 1421.027344 1697.980469 1406.789062 1678.492188 1434.167969 L 1537.476562 1363.757812 C 1543.023438 1343.316406 1547.339844 1325.257812 1550.339844 1310.457031 C 1564.242188 1239.40625 1530.863281 1200.71875 1466.15625 1176.382812 C 1459.648438 1174.355469 1452.5625 1175.007812 1445.78125 1174.332031 C 1431.773438 1175.28125 1418 1178.183594 1404.628906 1182.320312 C 1376.617188 1193.464844 1352.496094 1207.652344 1330.960938 1230.929688 L 1200.019531 1140.539062 C 1211.847656 1116.40625 1228.738281 1095.273438 1247.148438 1075.855469 C 1201.988281 1029.132812 1139.023438 993.144531 1073.03125 988.214844 C 1054.023438 986.792969 1034.921875 987.113281 1015.863281 986.554688 C 943.242188 993.15625 875.507812 1019.957031 824.351562 1073.34375 C 812.777344 1085.433594 803.738281 1099.730469 793.441406 1112.921875 C 820.28125 1120.816406 805.875 1116.015625 836.4375 1127.878906 C 854.144531 1135.371094 870.941406 1143.953125 886.734375 1153.78125 L 821.558594 1299.117188 C 784.640625 1288.246094 754.066406 1282.277344 729.191406 1280.117188 C 713.046875 1278.71875 701.855469 1279.039062 693.632812 1280.226562 C 692.082031 1280.4375 685.679688 1281.636719 684.675781 1281.796875 C 598.007812 1295.148438 545.410156 1392.855469 570.464844 1474.039062 C 590.851562 1540.109375 648.253906 1577.027344 715.136719 1580.386719 L 1017.984375 1580.808594 L 1022.003906 1580.808594" style="fill: rgb(243, 246, 248);" />
		</g>
		<g id="__id64_she7oqbzq9">
			<path d="M 1040.914062 1662.046875 C 1033.234375 1661.886719 1025.554688 1661.96875 1017.882812 1661.195312 L 715.0625 1660.785156 C 587.070312 1660.785156 483.300781 1557.027344 483.300781 1429.035156 C 486 1324.996094 547.394531 1241.125 646.128906 1207.703125 C 654.511719 1204.886719 663.773438 1203.738281 672.140625 1202.421875 C 680.476562 1201.09375 728.757812 1187.984375 844.28125 1222.019531 C 772.332031 1177.226562 680.636719 1172.410156 681.464844 1169.296875 C 732.207031 978.632812 925.230469 873.613281 1118.765625 914.359375 C 1229.628906 937.703125 1312.421875 1015.65625 1359.699219 1083.019531 C 1360.902344 1084.746094 1296.925781 1126.300781 1271.980469 1176.363281 C 1311.535156 1133.628906 1358.109375 1114.351562 1374.921875 1107.648438 C 1391.757812 1100.980469 1420.554688 1095.277344 1444.058594 1093.789062 C 1549.101562 1093.789062 1634.253906 1178.953125 1634.253906 1283.996094 C 1634.253906 1283.996094 1633.699219 1295.0625 1633.425781 1300.648438 C 1633.140625 1306.226562 1628.382812 1335.84375 1615.066406 1384.847656 C 1650.148438 1339.6875 1652.203125 1300.402344 1653.851562 1300.207031 C 1705.46875 1293.972656 1800.5625 1335.875 1833.585938 1403.664062 C 1842.742188 1422.476562 1846.375 1441.625 1850.660156 1461.9375 L 1850.671875 1462.214844 L 1851.648438 1462.328125 C 1851.023438 1468.386719 1851.304688 1474.4375 1851.648438 1480.484375 C 1851.648438 1580.757812 1764.6875 1662.046875 1657.429688 1662.046875 L 1063.453125 1661.246094 L 1060.375 1661.566406 L 1040.914062 1662.046875" style="fill: rgb(50, 57, 203);" />
		</g>
		<g id="__id65_she7oqbzq9">
			<path d="M 1223.269531 1921.011719 L 876.371094 1920.570312 C 869.410156 1920.878906 874.277344 1920.679688 861.761719 1920.980469 L 860.085938 1920.871094 L 858.375 1921 C 849.082031 1920.851562 853.839844 1921 844.085938 1920.519531 L 667.414062 1920.28125 L 665.480469 1920.28125 C 543.558594 1917.210938 455.628906 1825.558594 450.472656 1705.238281 C 450.40625 1702.910156 450.457031 1700.578125 450.582031 1698.25 C 454 1616.511719 501.914062 1539.679688 577.632812 1506.121094 C 630.832031 1361.058594 772.539062 1294.648438 920.4375 1320.609375 C 921.875 1320.890625 923.3125 1321.199219 924.734375 1321.539062 C 989.574219 1336.769531 1049.261719 1373.929688 1091.761719 1425.308594 C 1096.660156 1425.039062 1094.058594 1425.101562 1099.539062 1425.101562 C 1179.949219 1425.949219 1253.96875 1478.941406 1279.449219 1555.371094 C 1330.480469 1570.800781 1369.96875 1604.25 1397.53125 1649.199219 C 1398.980469 1651.800781 1400.269531 1654.480469 1401.421875 1657.230469 C 1408.621094 1672.671875 1412.308594 1689.421875 1415.980469 1705.96875 C 1418.949219 1714.050781 1418.359375 1722.910156 1418.039062 1731.421875 L 1418.25 1730.320312 C 1415.421875 1845.890625 1335.941406 1911.589844 1225.28125 1921.011719 Z M 1066.089844 1592.660156 L 1065.03125 1594.539062 L 1066.421875 1592.929688 Z M 1129.359375 1619.671875 L 1129.589844 1619.988281 L 1129.359375 1618.378906 Z M 873.128906 1759.800781 L 1223.378906 1760.261719 C 1240.828125 1758.011719 1231.058594 1760.628906 1251.640625 1749.238281 C 1258.460938 1736.289062 1257.46875 1742.421875 1257.320312 1731.519531 C 1246.378906 1744.28125 1229.910156 1752.980469 1213.460938 1756.089844 C 1205.648438 1757.558594 1197.570312 1756.730469 1189.621094 1757.050781 L 1177.601562 1754.78125 C 1134.710938 1743.320312 1109.25 1699.25 1120.730469 1656.359375 C 1125.210938 1640.191406 1130.191406 1624.21875 1127.828125 1607.390625 L 1111.988281 1588.980469 L 1099.628906 1585.921875 C 1081.589844 1587.320312 1066.101562 1597.320312 1053.789062 1610.039062 C 1028.578125 1636.121094 989.046875 1642.070312 957.257812 1624.589844 C 918.378906 1603.199219 904.199219 1554.300781 925.613281 1515.410156 C 933.816406 1501.488281 930.144531 1506.769531 935.8125 1499.011719 C 912.835938 1481.699219 885.535156 1476.160156 857.496094 1474.738281 C 826.074219 1475.109375 794.300781 1483.761719 769.503906 1503.71875 C 778.765625 1508.21875 773.894531 1505.671875 784.050781 1511.539062 C 815.953125 1530.039062 831.167969 1567.839844 820.996094 1603.28125 C 808.75 1645.949219 764.234375 1670.609375 721.554688 1658.359375 C 702.617188 1652.929688 683.203125 1648 663.390625 1647.679688 C 658.613281 1647.921875 662.015625 1647.660156 653.28125 1649.101562 L 652.753906 1648.859375 C 622.976562 1656.328125 614.035156 1679.261719 611.113281 1707.011719 C 612.152344 1737.320312 638.878906 1758.660156 667.621094 1759.511719 L 846.257812 1759.769531 L 861.9375 1760.199219 Z M 610.96875 1702.140625 L 611.082031 1705.988281 L 611.160156 1701.179688 Z M 1221.460938 1760.28125 L 1221.671875 1760.480469 L 1223.378906 1760.261719 L 1221.460938 1760.28125" style="fill: rgb(243, 246, 248);" />
		</g>
		<g id="__id66_she7oqbzq9">
			<path d="M 859.714844 1840.648438 C 855.183594 1840.558594 850.664062 1840.609375 846.144531 1840.160156 L 667.507812 1839.898438 C 592.019531 1839.898438 530.816406 1778.71875 530.816406 1703.230469 C 532.414062 1641.851562 568.609375 1592.378906 626.855469 1572.671875 C 631.789062 1571 637.265625 1570.328125 642.199219 1569.539062 C 647.117188 1568.75 675.605469 1561.039062 743.734375 1581.101562 C 701.277344 1554.691406 647.214844 1551.828125 647.710938 1550.011719 C 677.632812 1437.550781 791.492188 1375.601562 905.636719 1399.628906 C 971.035156 1413.398438 1019.859375 1459.398438 1047.761719 1499.121094 C 1048.460938 1500.140625 1010.730469 1524.648438 996.007812 1554.179688 C 1019.339844 1528.960938 1046.820312 1517.601562 1056.730469 1513.640625 C 1066.660156 1509.710938 1083.648438 1506.359375 1097.511719 1505.460938 C 1159.480469 1505.460938 1209.710938 1555.691406 1209.710938 1617.660156 C 1209.710938 1617.660156 1209.371094 1624.191406 1209.199219 1627.5 C 1209.039062 1630.769531 1206.238281 1648.238281 1198.371094 1677.148438 C 1219.078125 1650.519531 1220.28125 1627.339844 1221.25 1627.21875 C 1251.699219 1623.550781 1307.808594 1648.269531 1327.261719 1688.25 C 1332.671875 1699.351562 1334.808594 1710.640625 1337.328125 1722.609375 L 1337.351562 1722.789062 L 1337.921875 1722.871094 C 1337.550781 1726.429688 1337.730469 1729.988281 1337.921875 1733.558594 C 1337.921875 1792.699219 1286.640625 1840.648438 1223.359375 1840.648438 L 873.019531 1840.191406 L 871.195312 1840.359375 L 859.714844 1840.648438" style="fill: rgb(163, 167, 228);" />
		</g>
	</g>
</svg>
